<?xml version="1.0" encoding="UTF-8"?>
<svg id="Layer_1" data-name="Layer 1" xmlns="http://www.w3.org/2000/svg" viewBox="0 0 632.38 314.96">
  <defs>
    <style>
      .cls-1 {
        fill: #0c1b3f;
      }

      .cls-1, .cls-2 {
        stroke-width: 0px;
      }

      .cls-2 {
        fill: #b9d6f0;
      }
    </style>
  </defs>
  <g>
    <path class="cls-1" d="M101.3,185.66c0-1.68-.06-3.2-.18-4.58-.12-1.38-.3-2.69-.54-3.95-.24-1.26-.6-2.39-1.08-3.41-.48-1.02-1.02-2-1.62-2.96h34.31l19.76,82.08,20.3-82.08h30.35v131.3h-29.64v-93.58l-20.66,84.78h-19.22l-21.55-89.99v79.21c0,4.91.51,8.86,1.53,11.85,1.02,2.99,2.18,5.57,3.5,7.72h-15.27v-116.39Z"/>
    <path class="cls-1" d="M102.1,186.27c0-1.68-.06-3.2-.18-4.58-.12-1.38-.3-2.69-.54-3.95-.24-1.26-.6-2.39-1.08-3.41-.48-1.02-1.02-2-1.62-2.96h34.31l19.76,82.08,20.3-82.08h30.35v131.3h-29.64v-93.58l-20.66,84.78h-19.22l-21.55-89.99v79.21c0,4.91.51,8.86,1.53,11.85,1.02,2.99,2.18,5.57,3.5,7.72h-15.27v-116.39Z"/>
    <path class="cls-1" d="M102.9,186.89c0-1.68-.06-3.2-.18-4.58-.12-1.38-.3-2.69-.54-3.95-.24-1.26-.6-2.39-1.08-3.41-.48-1.02-1.02-2-1.62-2.96h34.31l19.76,82.08,20.3-82.08h30.35v131.3h-29.64v-93.58l-20.66,84.78h-19.22l-21.55-89.99v79.21c0,4.91.51,8.86,1.53,11.85,1.02,2.99,2.18,5.57,3.5,7.72h-15.27v-116.39Z"/>
    <path class="cls-1" d="M103.7,187.5c0-1.68-.06-3.2-.18-4.58-.12-1.38-.3-2.69-.54-3.95-.24-1.26-.6-2.39-1.08-3.41-.48-1.02-1.02-2-1.62-2.96h34.31l19.76,82.08,20.3-82.08h30.35v131.3h-29.64v-93.58l-20.66,84.78h-19.22l-21.55-89.99v79.21c0,4.91.51,8.86,1.53,11.85,1.02,2.99,2.18,5.57,3.5,7.72h-15.27v-116.39Z"/>
    <path class="cls-1" d="M104.5,188.12c0-1.68-.06-3.2-.18-4.58-.12-1.38-.3-2.69-.54-3.95-.24-1.26-.6-2.39-1.08-3.41-.48-1.02-1.02-2-1.62-2.96h34.31l19.76,82.08,20.3-82.08h30.35v131.3h-29.64v-93.58l-20.66,84.78h-19.22l-21.55-89.99v79.21c0,4.91.51,8.86,1.53,11.85,1.02,2.99,2.18,5.57,3.5,7.72h-15.27v-116.39Z"/>
    <path class="cls-1" d="M105.3,188.73c0-1.68-.06-3.2-.18-4.58-.12-1.38-.3-2.69-.54-3.95-.24-1.26-.6-2.39-1.08-3.41-.48-1.02-1.02-2-1.62-2.96h34.31l19.76,82.08,20.3-82.08h30.35v131.3h-29.64v-93.58l-20.66,84.78h-19.22l-21.55-89.99v79.21c0,4.91.51,8.86,1.53,11.85,1.02,2.99,2.18,5.57,3.5,7.72h-15.27v-116.39Z"/>
    <path class="cls-1" d="M106.1,189.35c0-1.68-.06-3.2-.18-4.58-.12-1.38-.3-2.69-.54-3.95-.24-1.26-.6-2.39-1.08-3.41-.48-1.02-1.02-2-1.62-2.96h34.31l19.76,82.08,20.3-82.08h30.35v131.3h-29.64v-93.58l-20.66,84.78h-19.22l-21.55-89.99v79.21c0,4.91.51,8.86,1.53,11.85,1.02,2.99,2.18,5.57,3.5,7.72h-15.27v-116.39Z"/>
    <path class="cls-1" d="M106.91,189.96c0-1.68-.06-3.2-.18-4.58-.12-1.38-.3-2.69-.54-3.95-.24-1.26-.6-2.39-1.08-3.41-.48-1.02-1.02-2-1.62-2.96h34.31l19.76,82.08,20.3-82.08h30.35v131.3h-29.64v-93.58l-20.66,84.78h-19.22l-21.55-89.99v79.21c0,4.91.51,8.86,1.53,11.85,1.02,2.99,2.18,5.57,3.5,7.72h-15.27v-116.39Z"/>
    <path class="cls-1" d="M107.71,190.58c0-1.68-.06-3.2-.18-4.58-.12-1.38-.3-2.69-.54-3.95-.24-1.26-.6-2.39-1.08-3.41-.48-1.02-1.02-2-1.62-2.96h34.31l19.76,82.08,20.3-82.08h30.35v131.3h-29.64v-93.58l-20.66,84.78h-19.22l-21.55-89.99v79.21c0,4.91.51,8.86,1.53,11.85,1.02,2.99,2.18,5.57,3.5,7.72h-15.27v-116.39Z"/>
    <path class="cls-1" d="M108.51,191.19c0-1.68-.06-3.2-.18-4.58-.12-1.38-.3-2.69-.54-3.95-.24-1.26-.6-2.39-1.08-3.41-.48-1.02-1.02-2-1.62-2.96h34.31l19.76,82.08,20.3-82.08h30.35v131.3h-29.64v-93.58l-20.66,84.78h-19.22l-21.55-89.99v79.21c0,4.91.51,8.86,1.53,11.85,1.02,2.99,2.18,5.57,3.5,7.72h-15.27v-116.39Z"/>
    <path class="cls-1" d="M109.31,191.81c0-1.68-.06-3.2-.18-4.58-.12-1.38-.3-2.69-.54-3.95-.24-1.26-.6-2.39-1.08-3.41-.48-1.02-1.02-2-1.62-2.96h34.31l19.76,82.08,20.3-82.08h30.35v131.3h-29.64v-93.58l-20.66,84.78h-19.22l-21.55-89.99v79.21c0,4.91.51,8.86,1.53,11.85,1.02,2.99,2.18,5.57,3.5,7.72h-15.27v-116.39Z"/>
    <path class="cls-1" d="M110.11,192.42c0-1.68-.06-3.2-.18-4.58-.12-1.38-.3-2.69-.54-3.95-.24-1.26-.6-2.39-1.08-3.41-.48-1.02-1.02-2-1.62-2.96h34.31l19.76,82.08,20.3-82.08h30.35v131.3h-29.64v-93.58l-20.66,84.78h-19.22l-21.55-89.99v79.21c0,4.91.51,8.86,1.53,11.85,1.02,2.99,2.18,5.57,3.5,7.72h-15.27v-116.39Z"/>
    <path class="cls-1" d="M110.91,193.04c0-1.68-.06-3.2-.18-4.58-.12-1.38-.3-2.69-.54-3.95-.24-1.26-.6-2.39-1.08-3.41-.48-1.02-1.02-2-1.62-2.96h34.31l19.76,82.08,20.3-82.08h30.35v131.3h-29.64v-93.58l-20.66,84.78h-19.22l-21.55-89.99v79.21c0,4.91.51,8.86,1.53,11.85,1.02,2.99,2.18,5.57,3.5,7.72h-15.27v-116.39Z"/>
    <path class="cls-1" d="M111.71,193.65c0-1.68-.06-3.2-.18-4.58-.12-1.38-.3-2.69-.54-3.95-.24-1.26-.6-2.39-1.08-3.41-.48-1.02-1.02-2-1.62-2.96h34.31l19.76,82.08,20.3-82.08h30.35v131.3h-29.64v-93.58l-20.66,84.78h-19.22l-21.55-89.99v79.21c0,4.91.51,8.86,1.53,11.85,1.02,2.99,2.18,5.57,3.5,7.72h-15.27v-116.39Z"/>
    <path class="cls-1" d="M112.51,194.27c0-1.68-.06-3.2-.18-4.58-.12-1.38-.3-2.69-.54-3.95-.24-1.26-.6-2.39-1.08-3.41-.48-1.02-1.02-2-1.62-2.96h34.31l19.76,82.08,20.3-82.08h30.35v131.3h-29.64v-93.58l-20.66,84.78h-19.22l-21.55-89.99v79.21c0,4.91.51,8.86,1.53,11.85,1.02,2.99,2.18,5.57,3.5,7.72h-15.27v-116.39Z"/>
    <path class="cls-1" d="M113.31,194.88c0-1.68-.06-3.2-.18-4.58-.12-1.38-.3-2.69-.54-3.95-.24-1.26-.6-2.39-1.08-3.41-.48-1.02-1.02-2-1.62-2.96h34.31l19.76,82.08,20.3-82.08h30.35v131.3h-29.64v-93.58l-20.66,84.78h-19.22l-21.55-89.99v79.21c0,4.91.51,8.86,1.53,11.85,1.02,2.99,2.18,5.57,3.5,7.72h-15.27v-116.39Z"/>
    <path class="cls-1" d="M114.11,195.5c0-1.68-.06-3.2-.18-4.58-.12-1.38-.3-2.69-.54-3.95-.24-1.26-.6-2.39-1.08-3.41-.48-1.02-1.02-2-1.62-2.96h34.31l19.76,82.08,20.3-82.08h30.35v131.3h-29.64v-93.58l-20.66,84.78h-19.22l-21.55-89.99v79.21c0,4.91.51,8.86,1.53,11.85,1.02,2.99,2.18,5.57,3.5,7.72h-15.27v-116.39Z"/>
    <path class="cls-1" d="M114.91,196.11c0-1.68-.06-3.2-.18-4.58-.12-1.38-.3-2.69-.54-3.95-.24-1.26-.6-2.39-1.08-3.41-.48-1.02-1.02-2-1.62-2.96h34.31l19.76,82.08,20.3-82.08h30.35v131.3h-29.64v-93.58l-20.66,84.78h-19.22l-21.55-89.99v79.21c0,4.91.51,8.86,1.53,11.85,1.02,2.99,2.18,5.57,3.5,7.72h-15.27v-116.39Z"/>
    <path class="cls-1" d="M115.71,196.73c0-1.68-.06-3.2-.18-4.58-.12-1.38-.3-2.69-.54-3.95-.24-1.26-.6-2.39-1.08-3.41-.48-1.02-1.02-2-1.62-2.96h34.31l19.76,82.08,20.3-82.08h30.35v131.3h-29.64v-93.58l-20.66,84.78h-19.22l-21.55-89.99v79.21c0,4.91.51,8.86,1.53,11.85,1.02,2.99,2.18,5.57,3.5,7.72h-15.27v-116.39Z"/>
    <path class="cls-1" d="M116.51,197.34c0-1.68-.06-3.2-.18-4.58-.12-1.38-.3-2.69-.54-3.95-.24-1.26-.6-2.39-1.08-3.41-.48-1.02-1.02-2-1.62-2.96h34.31l19.76,82.08,20.3-82.08h30.35v131.3h-29.64v-93.58l-20.66,84.78h-19.22l-21.55-89.99v79.21c0,4.91.51,8.86,1.53,11.85,1.02,2.99,2.18,5.57,3.5,7.72h-15.27v-116.39Z"/>
    <path class="cls-1" d="M117.31,197.96c0-1.68-.06-3.2-.18-4.58-.12-1.38-.3-2.69-.54-3.95-.24-1.26-.6-2.39-1.08-3.41-.48-1.02-1.02-2-1.62-2.96h34.31l19.76,82.08,20.3-82.08h30.35v131.3h-29.64v-93.58l-20.66,84.78h-19.22l-21.55-89.99v79.21c0,4.91.51,8.86,1.53,11.85,1.02,2.99,2.18,5.57,3.5,7.72h-15.27v-116.39Z"/>
    <path class="cls-1" d="M118.11,198.57c0-1.68-.06-3.2-.18-4.58-.12-1.38-.3-2.69-.54-3.95-.24-1.26-.6-2.39-1.08-3.41-.48-1.02-1.02-2-1.62-2.96h34.31l19.76,82.08,20.3-82.08h30.35v131.3h-29.64v-93.58l-20.66,84.78h-19.22l-21.55-89.99v79.21c0,4.91.51,8.86,1.53,11.85,1.02,2.99,2.18,5.57,3.5,7.72h-15.27v-116.39Z"/>
  </g>
  <path class="cls-2" d="M101.3,185.66c0-1.68-.06-3.2-.18-4.58-.12-1.38-.3-2.69-.54-3.95-.24-1.26-.6-2.39-1.08-3.41-.48-1.02-1.02-2-1.62-2.96h34.31l19.76,82.08,20.3-82.08h30.35v131.3h-29.64v-93.58l-20.66,84.78h-19.22l-21.55-89.99v79.21c0,4.91.51,8.86,1.53,11.85,1.02,2.99,2.18,5.57,3.5,7.72h-15.27v-116.39Z"/>
</svg>